REM DIRINDEX 1\5,1\2\6,1\2\7,1\3\8,1\3\9,1\4\10,1\4\11,1\4\12
REM DIRNAME folder01,folder02,folder03,folder04,folder05,folder06,folder07,folder08,folder09,folder10,folder11,folder12
TITLE ""
FILE "EJE_DB3000_5th_3B_21.mp3" MP3
  TRACK 01 AUDIO
    TITLE "0:"
    INDEX 01 00:00:00
  TRACK 02 AUDIO
    TITLE "10:cjc026_08967"
    INDEX 01 00:00:05
  TRACK 03 AUDIO
    TITLE "0:"
    INDEX 01 00:01:19
  TRACK 04 AUDIO
    TITLE "11:cjc026_08968"
    INDEX 01 00:01:46
  TRACK 05 AUDIO
    TITLE "0:"
    INDEX 01 00:03:59
  TRACK 06 AUDIO
    TITLE "12:cjc026_08969"
    INDEX 01 00:04:11
  TRACK 07 AUDIO
    TITLE "0:"
    INDEX 01 00:05:24
  TRACK 08 AUDIO
    TITLE "10:cjc026_08970"
    INDEX 01 00:05:50
  TRACK 09 AUDIO
    TITLE "0:"
    INDEX 01 00:06:67
  TRACK 10 AUDIO
    TITLE "11:cjc026_08971"
    INDEX 01 00:07:17
  TRACK 11 AUDIO
    TITLE "0:"
    INDEX 01 00:08:68
  TRACK 12 AUDIO
    TITLE "12:cjc026_08972"
    INDEX 01 00:09:18
  TRACK 13 AUDIO
    TITLE "0:"
    INDEX 01 00:10:35
  TRACK 14 AUDIO
    TITLE "10:cjc026_08973"
    INDEX 01 00:10:61
  TRACK 15 AUDIO
    TITLE "0:"
    INDEX 01 00:12:07
  TRACK 16 AUDIO
    TITLE "11:cjc026_08974"
    INDEX 01 00:12:32
  TRACK 17 AUDIO
    TITLE "0:"
    INDEX 01 00:14:45
  TRACK 18 AUDIO
    TITLE "12:cjc026_08975"
    INDEX 01 00:14:70
  TRACK 19 AUDIO
    TITLE "0:"
    INDEX 01 00:16:14
  TRACK 20 AUDIO
    TITLE "10:cjc026_08976"
    INDEX 01 00:16:42
  TRACK 21 AUDIO
    TITLE "0:"
    INDEX 01 00:17:67
  TRACK 22 AUDIO
    TITLE "11:cjc026_08977"
    INDEX 01 00:18:17
  TRACK 23 AUDIO
    TITLE "0:"
    INDEX 01 00:19:65
  TRACK 24 AUDIO
    TITLE "12:cjc026_08978"
    INDEX 01 00:20:16
  TRACK 25 AUDIO
    TITLE "0:"
    INDEX 01 00:21:39
  TRACK 26 AUDIO
    TITLE "10:cjc026_08979"
    INDEX 01 00:21:66
  TRACK 27 AUDIO
    TITLE "0:"
    INDEX 01 00:23:08
  TRACK 28 AUDIO
    TITLE "11:cjc026_08980"
    INDEX 01 00:23:38
  TRACK 29 AUDIO
    TITLE "0:"
    INDEX 01 00:25:35
  TRACK 30 AUDIO
    TITLE "12:cjc026_08981"
    INDEX 01 00:25:60
  TRACK 31 AUDIO
    TITLE "0:"
    INDEX 01 00:27:04
  TRACK 32 AUDIO
    TITLE "10:cjc026_08982"
    INDEX 01 00:27:32
  TRACK 33 AUDIO
    TITLE "0:"
    INDEX 01 00:28:51
  TRACK 34 AUDIO
    TITLE "11:cjc026_08983"
    INDEX 01 00:29:03
  TRACK 35 AUDIO
    TITLE "0:"
    INDEX 01 00:31:10
  TRACK 36 AUDIO
    TITLE "12:cjc026_08984"
    INDEX 01 00:31:35
  TRACK 37 AUDIO
    TITLE "0:"
    INDEX 01 00:32:56
  TRACK 38 AUDIO
    TITLE "10:cjc026_08985"
    INDEX 01 00:33:07
  TRACK 39 AUDIO
    TITLE "0:"
    INDEX 01 00:34:32
  TRACK 40 AUDIO
    TITLE "11:cjc026_08986"
    INDEX 01 00:34:61
  TRACK 41 AUDIO
    TITLE "0:"
    INDEX 01 00:36:70
  TRACK 42 AUDIO
    TITLE "12:cjc026_08987"
    INDEX 01 00:37:20
  TRACK 43 AUDIO
    TITLE "0:"
    INDEX 01 00:38:47
  TRACK 44 AUDIO
    TITLE "10:cjc026_08988"
    INDEX 01 00:39:00
  TRACK 45 AUDIO
    TITLE "0:"
    INDEX 01 00:40:30
  TRACK 46 AUDIO
    TITLE "11:cjc026_08989"
    INDEX 01 00:40:58
  TRACK 47 AUDIO
    TITLE "0:"
    INDEX 01 00:42:72
  TRACK 48 AUDIO
    TITLE "12:cjc026_08990"
    INDEX 01 00:43:23
  TRACK 49 AUDIO
    TITLE "0:"
    INDEX 01 00:44:52
  TRACK 50 AUDIO
    TITLE "10:cjc026_08991"
    INDEX 01 00:45:02
  TRACK 51 AUDIO
    TITLE "0:"
    INDEX 01 00:46:19
  TRACK 52 AUDIO
    TITLE "11:cjc026_08992"
    INDEX 01 00:46:56
  TRACK 53 AUDIO
    TITLE "0:"
    INDEX 01 00:48:55
  TRACK 54 AUDIO
    TITLE "12:cjc026_08993"
    INDEX 01 00:49:04
  TRACK 55 AUDIO
    TITLE "0:"
    INDEX 01 00:50:21
  TRACK 56 AUDIO
    TITLE "10:cjc026_08994"
    INDEX 01 00:50:54
  TRACK 57 AUDIO
    TITLE "0:"
    INDEX 01 00:51:67
  TRACK 58 AUDIO
    TITLE "11:cjc026_08995"
    INDEX 01 00:52:26
  TRACK 59 AUDIO
    TITLE "0:"
    INDEX 01 00:54:13
  TRACK 60 AUDIO
    TITLE "12:cjc026_08996"
    INDEX 01 00:54:38
  TRACK 61 AUDIO
    TITLE "0:"
    INDEX 01 00:55:50
  TRACK 62 AUDIO
    TITLE "10:cjc026_08997"
    INDEX 01 00:56:08
  TRACK 63 AUDIO
    TITLE "0:"
    INDEX 01 00:57:37
  TRACK 64 AUDIO
    TITLE "11:cjc026_08998"
    INDEX 01 00:57:64
  TRACK 65 AUDIO
    TITLE "0:"
    INDEX 01 00:59:63
  TRACK 66 AUDIO
    TITLE "12:cjc026_08999"
    INDEX 01 01:00:13
  TRACK 67 AUDIO
    TITLE "0:"
    INDEX 01 01:01:42
  TRACK 68 AUDIO
    TITLE "10:cjc026_09000"
    INDEX 01 01:01:68
  TRACK 69 AUDIO
    TITLE "0:"
    INDEX 01 01:03:18
  TRACK 70 AUDIO
    TITLE "11:cjc026_09001"
    INDEX 01 01:03:43
  TRACK 71 AUDIO
    TITLE "0:"
    INDEX 01 01:05:38
  TRACK 72 AUDIO
    TITLE "12:cjc026_09002"
    INDEX 01 01:05:64
  TRACK 73 AUDIO
    TITLE "0:"
    INDEX 01 01:07:14
  TRACK 74 AUDIO
    TITLE "10:cjc026_09003"
    INDEX 01 01:07:39
  TRACK 75 AUDIO
    TITLE "0:"
    INDEX 01 01:08:64
  TRACK 76 AUDIO
    TITLE "11:cjc026_09004"
    INDEX 01 01:09:14
  TRACK 77 AUDIO
    TITLE "0:"
    INDEX 01 01:11:25
  TRACK 78 AUDIO
    TITLE "12:cjc026_09005"
    INDEX 01 01:11:51
  TRACK 79 AUDIO
    TITLE "0:"
    INDEX 01 01:13:00
  TRACK 80 AUDIO
    TITLE "10:cjc026_09006"
    INDEX 01 01:13:26
  TRACK 81 AUDIO
    TITLE "0:"
    INDEX 01 01:14:33
  TRACK 82 AUDIO
    TITLE "11:cjc026_09007"
    INDEX 01 01:14:61
  TRACK 83 AUDIO
    TITLE "0:"
    INDEX 01 01:16:26
  TRACK 84 AUDIO
    TITLE "12:cjc026_09008"
    INDEX 01 01:16:54
  TRACK 85 AUDIO
    TITLE "0:"
    INDEX 01 01:17:61
